<?xml version="1.0" encoding="utf-8"?>
<!-- Generator: Adobe Illustrator 26.2.0, SVG Export Plug-In . SVG Version: 6.00 Build 0)  -->
<svg version="1.1" id="레이어_1" xmlns="http://www.w3.org/2000/svg" xmlns:xlink="http://www.w3.org/1999/xlink" x="0px"
	 y="0px" viewBox="0 0 518.74 128.86" style="enable-background:new 0 0 518.74 128.86;" xml:space="preserve">
<style type="text/css">
	.st0{fill:#FFFFFF;}
	.st1{fill:url(#SVGID_1_);}
	.st2{fill:url(#SVGID_00000148647457860200363420000013724561013173118604_);}
	.st3{fill:url(#SVGID_00000014628539488090329710000007221002717794779581_);}
	.st4{fill:url(#SVGID_00000069379122445495813550000010117264339011217547_);}
</style>
<g>
	<g>
		<path class="st0" d="M362.2,54.96v-9.34h3.33c2.81,0,4.53,1.75,4.53,4.66c0.01,2.92-1.72,4.68-4.57,4.68H362.2z M365.41,53.3
			c1.78,0,2.71-0.92,2.71-3.02c0-2.08-0.93-2.99-2.7-2.99h-1.29v6.01H365.41z"/>
	</g>
	<g>
		<path class="st0" d="M372.27,54.96l3.24-9.34h2.49l3.22,9.34h-2.08l-0.7-2.15h-3.38l-0.7,2.15H372.27z M377.95,51.3l-1.17-3.57
			h-0.06l-1.17,3.57H377.95z"/>
	</g>
	<g>
		<path class="st0" d="M386.07,54.96h-1.93v-9.34h1.93V54.96z"/>
	</g>
	<g>
		<path class="st0" d="M392.95,47.12c-0.98,0-1.53,0.45-1.53,1.07c-0.01,0.68,0.69,0.98,1.5,1.16l0.84,0.21
			c1.6,0.37,2.79,1.18,2.8,2.73c-0.01,1.71-1.33,2.8-3.61,2.8c-2.26,0.01-3.69-1.04-3.75-3.04h1.88c0.06,0.94,0.81,1.42,1.84,1.42
			c1.02,0,1.68-0.48,1.68-1.17c0-0.64-0.58-0.94-1.6-1.19l-1.02-0.24c-1.57-0.39-2.54-1.17-2.54-2.54c-0.01-1.7,1.49-2.82,3.53-2.82
			c2.07,0,3.43,1.15,3.46,2.8h-1.86C394.49,47.55,393.9,47.12,392.95,47.12z"/>
	</g>
	<g>
		<path class="st0" d="M403.86,55.09c-2.49,0-4.37-1.76-4.37-4.8c0-3.05,1.88-4.8,4.37-4.8c2.47,0,4.36,1.75,4.36,4.8
			C408.22,53.34,406.33,55.09,403.86,55.09z M403.86,53.37c1.44-0.01,2.39-1.09,2.39-3.08c0.01-2-0.95-3.08-2.39-3.08
			c-1.45,0.01-2.4,1.08-2.4,3.08C401.46,52.29,402.41,53.37,403.86,53.37z"/>
	</g>
	<g>
		<path class="st0" d="M424.16,54.96h-1.68l-4.1-5.93h-0.08v5.93h-1.93v-9.34h1.7l4.07,5.93h0.09v-5.93h1.92V54.96z"/>
	</g>
	<g>
		<path class="st0" d="M427.59,45.62h6.27v1.6h-4.33v2.27h4.01v1.6h-4.01v2.27h4.35v1.6h-6.28V45.62z"/>
	</g>
	<g>
		<path class="st0" d="M436.65,45.62h2.12l1.57,6.53h0.08l1.71-6.53h1.82l1.72,6.54h0.08l1.57-6.54h2.11l-2.67,9.34h-1.9l-1.78-6.16
			H443l-1.79,6.16h-1.9L436.65,45.62z"/>
	</g>
	<g>
		<path class="st0" d="M455.66,47.12c-0.98,0-1.53,0.45-1.53,1.07c-0.01,0.68,0.69,0.98,1.5,1.16l0.84,0.21
			c1.6,0.37,2.79,1.18,2.8,2.73c-0.01,1.71-1.33,2.8-3.61,2.8c-2.26,0.01-3.69-1.04-3.75-3.04h1.88c0.06,0.94,0.81,1.42,1.84,1.42
			c1.02,0,1.68-0.48,1.68-1.17c0-0.64-0.58-0.94-1.6-1.19l-1.02-0.24c-1.57-0.39-2.54-1.17-2.54-2.54c-0.01-1.7,1.49-2.82,3.53-2.82
			c2.07,0,3.43,1.15,3.46,2.8h-1.86C457.19,47.55,456.6,47.12,455.66,47.12z"/>
	</g>
	<g>
		<path class="st0" d="M462.38,45.62h1.93v7.74h4.02v1.6h-5.96V45.62z"/>
	</g>
	<g>
		<path class="st0" d="M471.44,45.62h6.27v1.6h-4.33v2.27h4.01v1.6h-4.01v2.27h4.35v1.6h-6.28V45.62z"/>
	</g>
	<g>
		<path class="st0" d="M480.72,45.62h7.65v1.6h-2.86v7.74h-1.92v-7.74h-2.86V45.62z"/>
	</g>
	<g>
		<path class="st0" d="M491.06,45.62h7.65v1.6h-2.86v7.74h-1.92v-7.74h-2.86V45.62z"/>
	</g>
	<g>
		<path class="st0" d="M501.77,45.62h6.27v1.6h-4.33v2.27h4.01v1.6h-4.01v2.27h4.35v1.6h-6.28V45.62z"/>
	</g>
	<g>
		<path class="st0" d="M511.4,45.62h3.66c2.12,0,3.34,1.19,3.34,3.04c0,1.28-0.59,2.2-1.65,2.66l1.99,3.63h-2.14l-1.79-3.31h-1.48
			v3.31h-1.93V45.62z M514.7,50.07c1.15,0,1.71-0.47,1.7-1.41c0.01-0.94-0.55-1.45-1.7-1.46h-1.37v2.86H514.7z"/>
	</g>
</g>
<g>
	<g>
		<rect x="362.2" y="66.96" class="st0" width="30.28" height="7.76"/>
	</g>
	<g>
		<rect x="470.78" y="66.96" class="st0" width="34.28" height="7.76"/>
	</g>
	<g>
		<rect x="425.93" y="97.15" class="st0" width="35.21" height="7.46"/>
	</g>
	<g>
		<rect x="425.93" y="107.05" class="st0" width="35.21" height="7.46"/>
	</g>
	<g>
		<rect x="434.3" y="116.95" class="st0" width="26.84" height="7.46"/>
	</g>
	<g>
		<rect x="406.45" y="80.59" class="st0" width="6.77" height="7.76"/>
	</g>
	<g>
		<rect x="461.14" y="76.71" class="st0" width="6.77" height="7.76"/>
	</g>
	<g>
		<rect x="370.57" y="95.49" class="st0" width="21.91" height="7.76"/>
	</g>
	<g>
		<path class="st0" d="M362.2,95.43V71.82h8.37v31.44h-0.53C365.71,103.26,362.2,99.75,362.2,95.43z"/>
	</g>
	<g>
		<rect x="398.08" y="65.41" class="st0" width="8.37" height="47.79"/>
	</g>
	<g>
		<rect x="510.37" y="65.41" class="st0" width="8.37" height="47.79"/>
	</g>
	<g>
		<rect x="452.77" y="65.41" class="st0" width="8.37" height="29.33"/>
	</g>
	<g>
		<rect x="452.77" y="99.57" class="st0" width="8.37" height="11.19"/>
	</g>
	<g>
		<path class="st0" d="M425.93,116.58v-7.05h8.37v14.88h-0.53C429.44,124.41,425.93,120.9,425.93,116.58z"/>
	</g>
	<g>
		<path class="st0" d="M431.1,95.02c-8.24,0-14.94-6.7-14.94-14.94s6.7-14.94,14.94-14.94s14.94,6.7,14.94,14.94
			S439.34,95.02,431.1,95.02z M431.1,73.28c-3.75,0-6.79,3.05-6.79,6.79c0,3.75,3.05,6.79,6.79,6.79c3.75,0,6.79-3.05,6.79-6.79
			C437.89,76.33,434.84,73.28,431.1,73.28z"/>
	</g>
	<g>
		<path class="st0" d="M503.8,105.39c-17-5.55-19.78-20.75-19.89-21.39l-0.06-0.34V73.56H492v9.33c0.4,1.75,3.06,11.07,14.33,14.74
			L503.8,105.39z"/>
	</g>
	<g>
		<path class="st0" d="M472.05,105.39l-2.53-7.75c11.23-3.67,13.91-12.94,14.33-14.75v-9.33H492v10.09l-0.06,0.34
			C491.83,84.64,489.05,99.84,472.05,105.39z"/>
	</g>
</g>
<g>
	<g>
		<linearGradient id="SVGID_1_" gradientUnits="userSpaceOnUse" x1="110.6735" y1="24.7808" x2="16.0426" y2="24.7808">
			<stop  offset="4.343510e-03" style="stop-color:#FFFFFF;stop-opacity:0"/>
			<stop  offset="0.7166" style="stop-color:#FFFFFF"/>
		</linearGradient>
		<path class="st1" d="M30.73,39.28c7.44-9.42,18.95-15.47,31.89-15.47c16.49,0,30.67,9.83,37.04,23.94
			c2.16-8.58,5.95-16.51,11.02-23.46C99.19,10.55,81.92,1.81,62.62,1.81c-18.49,0-35.11,8.02-46.57,20.77
			C20.33,28.68,25.28,34.26,30.73,39.28z"/>
		
			<linearGradient id="SVGID_00000173873207147291431050000017326890403752161458_" gradientUnits="userSpaceOnUse" x1="117.7992" y1="104.0777" x2="213.9127" y2="104.0777">
			<stop  offset="4.343510e-03" style="stop-color:#FFFFFF;stop-opacity:0"/>
			<stop  offset="0.6468" style="stop-color:#FFFFFF"/>
		</linearGradient>
		<path style="fill:url(#SVGID_00000173873207147291431050000017326890403752161458_);" d="M165.86,105.05
			c-16.49,0-30.67-9.83-37.04-23.94c-2.16,8.58-5.95,16.51-11.02,23.46c11.49,13.74,28.75,22.48,48.06,22.48s36.57-8.74,48.06-22.48
			c-5.07-6.95-8.86-14.88-11.02-23.46C196.53,95.22,182.34,105.05,165.86,105.05z"/>
		
			<linearGradient id="SVGID_00000029728092302445881880000005875663205303462049_" gradientUnits="userSpaceOnUse" x1="213.9127" y1="24.7809" x2="117.7992" y2="24.7809">
			<stop  offset="4.343510e-03" style="stop-color:#FFFFFF;stop-opacity:0"/>
			<stop  offset="0.7166" style="stop-color:#FFFFFF"/>
		</linearGradient>
		<path style="fill:url(#SVGID_00000029728092302445881880000005875663205303462049_);" d="M165.86,23.81
			c16.49,0,30.67,9.83,37.04,23.94c2.16-8.58,5.95-16.51,11.02-23.46c-11.49-13.74-28.75-22.48-48.06-22.48
			c-19.31,0-36.57,8.74-48.06,22.48c5.07,6.95,8.86,14.88,11.02,23.46C135.18,33.64,149.37,23.81,165.86,23.81z"/>
		
			<linearGradient id="SVGID_00000146465004166241988530000012663172390077690256_" gradientUnits="userSpaceOnUse" x1="221.0383" y1="104.0776" x2="299.486" y2="104.0776">
			<stop  offset="4.343510e-03" style="stop-color:#FFFFFF;stop-opacity:0"/>
			<stop  offset="0.6468" style="stop-color:#FFFFFF"/>
		</linearGradient>
		<path style="fill:url(#SVGID_00000146465004166241988530000012663172390077690256_);" d="M280.81,103.33
			c-3.71,1.12-7.64,1.72-11.71,1.72c-16.49,0-30.67-9.83-37.04-23.94c-2.16,8.58-5.95,16.51-11.02,23.46
			c11.49,13.74,28.75,22.48,48.06,22.48c11.03,0,21.39-2.86,30.39-7.86C292.26,115.17,285.92,109.76,280.81,103.33z"/>
		<g>
			<g>
				<path class="st0" d="M114.24,28.98c-6.93,10.08-11,22.29-11,35.45c0,5.95-1.29,11.59-3.58,16.68
					c-6.37,14.11-20.55,23.94-37.04,23.94c-22.44,0-40.62-18.19-40.62-40.62c0-9.5,3.27-18.23,8.73-25.15
					c-5.45-5.02-10.39-10.6-14.69-16.69C6.07,33.68,0,48.34,0,64.43c0,34.58,28.03,62.62,62.62,62.62
					c19.31,0,36.57-8.74,48.06-22.48v0c1.26-1.51,2.45-3.07,3.56-4.69c6.93-10.08,11-22.29,11-35.45c0-5.95,1.29-11.59,3.58-16.68
					c-2.16-8.58-5.95-16.51-11.02-23.46C116.54,25.8,115.35,27.36,114.24,28.98z"/>
			</g>
			<g>
				<path class="st0" d="M320.07,109.78c-1.22-1.48-2.34-3.05-3.37-4.68c9.36-10.94,15.01-25.14,15.01-40.67
					c0-7.07-1.17-13.88-3.34-20.22c-5.04-14.77-15.44-27.06-28.89-34.54c-9-5.01-19.36-7.86-30.39-7.86
					c-19.31,0-36.57,8.74-48.06,22.48c-1.26,1.51-2.45,3.07-3.56,4.69c-6.93,10.08-11,22.29-11,35.45c0,5.95-1.29,11.59-3.58,16.68
					c2.16,8.58,5.95,16.51,11.02,23.46c1.26-1.51,2.45-3.07,3.56-4.69c6.93-10.08,11-22.29,11-35.45c0-5.95,1.29-11.59,3.58-16.68
					c6.37-14.11,20.55-23.94,37.04-23.94c4.07,0,8,0.61,11.71,1.72c16.72,5.03,28.91,20.54,28.91,38.9
					c0,18.36-12.19,33.87-28.91,38.9c5.11,6.43,11.45,11.84,18.68,15.86c1.95,1.09,3.97,2.07,6.04,2.95
					c7.48,3.16,15.71,4.91,24.35,4.91c5.23,0,10.31-0.65,15.17-1.85C335.08,122.93,326.36,117.4,320.07,109.78z"/>
			</g>
		</g>
	</g>
	<g>
		<path class="st0" d="M63.36,88.66c-13.49,0-24.47-10.98-24.47-24.47h6.45c0,9.93,8.08,18.02,18.02,18.02s18.02-8.08,18.02-18.02
			h6.45C87.83,77.69,76.85,88.66,63.36,88.66z"/>
	</g>
	<g>
		<rect x="51.68" y="47.75" class="st0" width="6.45" height="14.42"/>
	</g>
	<g>
		<rect x="68.58" y="47.75" class="st0" width="6.45" height="14.42"/>
	</g>
	<g>
		<path class="st0" d="M165.86,88.66c-13.49,0-24.47-10.98-24.47-24.47h6.45c0,9.93,8.08,18.02,18.02,18.02s18.02-8.08,18.02-18.02
			h6.45C190.33,77.69,179.35,88.66,165.86,88.66z"/>
	</g>
	<g>
		<rect x="154.18" y="47.75" class="st0" width="6.45" height="14.42"/>
	</g>
	<g>
		<rect x="171.08" y="47.75" class="st0" width="6.45" height="14.42"/>
	</g>
	<g>
		<path class="st0" d="M268.35,88.66c-13.49,0-24.47-10.98-24.47-24.47h6.45c0,9.93,8.08,18.02,18.02,18.02s18.02-8.08,18.02-18.02
			h6.45C292.82,77.69,281.85,88.66,268.35,88.66z"/>
	</g>
	<g>
		<rect x="256.68" y="47.75" class="st0" width="6.45" height="14.42"/>
	</g>
	<g>
		<rect x="273.58" y="47.75" class="st0" width="6.45" height="14.42"/>
	</g>
</g>
</svg>
