<?xml version="1.0" encoding="utf-8"?>
<!-- Generator: Adobe Illustrator 26.2.0, SVG Export Plug-In . SVG Version: 6.00 Build 0)  -->
<svg version="1.1" id="레이어_1" xmlns="http://www.w3.org/2000/svg" xmlns:xlink="http://www.w3.org/1999/xlink" x="0px"
	 y="0px" viewBox="0 0 156.54 85.05" style="enable-background:new 0 0 156.54 85.05;" xml:space="preserve">
<style type="text/css">
	.st0{fill:#E50012;}
</style>
<g>
	<path class="st0" d="M0,9.34V0h3.33c2.81,0,4.53,1.75,4.53,4.66c0.01,2.92-1.72,4.68-4.57,4.68H0z M3.21,7.68
		c1.78,0,2.71-0.92,2.71-3.02c0-2.08-0.93-2.99-2.7-2.99H1.93v6.01C1.93,7.68,3.21,7.68,3.21,7.68z"/>
	<path class="st0" d="M10.07,9.34L13.31,0h2.49l3.22,9.34h-2.08l-0.7-2.15h-3.38l-0.7,2.15H10.07z M15.75,5.68l-1.17-3.57h-0.06
		l-1.17,3.57H15.75z"/>
	<path class="st0" d="M23.87,9.34h-1.93V0h1.93V9.34z"/>
	<path class="st0" d="M30.75,1.5c-0.98,0-1.53,0.45-1.53,1.07c-0.01,0.68,0.69,0.98,1.5,1.16l0.84,0.21c1.6,0.37,2.79,1.18,2.8,2.73
		c-0.01,1.71-1.33,2.8-3.61,2.8C28.49,9.48,27.06,8.43,27,6.43h1.88c0.06,0.94,0.81,1.42,1.84,1.42c1.02,0,1.68-0.48,1.68-1.17
		c0-0.64-0.58-0.94-1.6-1.19l-1.02-0.24c-1.57-0.39-2.54-1.17-2.54-2.54c-0.01-1.7,1.49-2.82,3.53-2.82c2.07,0,3.43,1.15,3.46,2.8
		h-1.86C32.29,1.93,31.7,1.5,30.75,1.5z"/>
	<path class="st0" d="M41.66,9.47c-2.49,0-4.37-1.76-4.37-4.8c0-3.05,1.88-4.8,4.37-4.8c2.47,0,4.36,1.75,4.36,4.8
		C46.02,7.72,44.13,9.47,41.66,9.47z M41.66,7.75c1.44-0.01,2.39-1.09,2.39-3.08c0.01-2-0.95-3.08-2.39-3.08
		c-1.45,0.01-2.4,1.08-2.4,3.08C39.26,6.66,40.21,7.75,41.66,7.75z"/>
	<path class="st0" d="M61.96,9.34h-1.68l-4.1-5.93H56.1v5.93h-1.93V0h1.7l4.07,5.93h0.09V0h1.92L61.96,9.34L61.96,9.34z"/>
	<path class="st0" d="M65.39,0h6.27v1.6h-4.33v2.27h4.01v1.6h-4.01v2.27h4.35v1.6H65.4V0H65.39z"/>
	<path class="st0" d="M74.45,0h2.12l1.57,6.53h0.08L79.93,0h1.82l1.72,6.54h0.08L85.12,0h2.11l-2.67,9.34h-1.9l-1.78-6.16H80.8
		l-1.79,6.16h-1.9L74.45,0z"/>
	<path class="st0" d="M93.46,1.5c-0.98,0-1.53,0.45-1.53,1.07c-0.01,0.68,0.69,0.98,1.5,1.16l0.84,0.21c1.6,0.37,2.79,1.18,2.8,2.73
		c-0.01,1.71-1.33,2.8-3.61,2.8c-2.26,0.01-3.69-1.04-3.75-3.04h1.88c0.06,0.94,0.81,1.42,1.84,1.42c1.02,0,1.68-0.48,1.68-1.17
		c0-0.64-0.58-0.94-1.6-1.19l-1.02-0.24c-1.57-0.39-2.54-1.17-2.54-2.54c-0.01-1.7,1.49-2.82,3.53-2.82c2.07,0,3.43,1.15,3.46,2.8
		h-1.86C94.99,1.93,94.4,1.5,93.46,1.5z"/>
	<path class="st0" d="M100.18,0h1.93v7.74h4.02v1.6h-5.96V0H100.18z"/>
	<path class="st0" d="M109.24,0h6.27v1.6h-4.33v2.27h4.01v1.6h-4.01v2.27h4.35v1.6h-6.28V0H109.24z"/>
	<path class="st0" d="M118.52,0h7.65v1.6h-2.86v7.74h-1.92V1.6h-2.86V0H118.52z"/>
	<path class="st0" d="M128.86,0h7.65v1.6h-2.86v7.74h-1.92V1.6h-2.86V0H128.86z"/>
	<path class="st0" d="M139.57,0h6.27v1.6h-4.33v2.27h4.01v1.6h-4.01v2.27h4.35v1.6h-6.28V0H139.57z"/>
	<path class="st0" d="M149.2,0h3.66c2.12,0,3.34,1.19,3.34,3.04c0,1.28-0.59,2.2-1.65,2.66l1.99,3.63h-2.14l-1.79-3.31h-1.48v3.31
		h-1.93L149.2,0L149.2,0z M152.5,4.45c1.15,0,1.71-0.47,1.7-1.41c0.01-0.94-0.55-1.45-1.7-1.46h-1.37v2.86L152.5,4.45L152.5,4.45z"
		/>
</g>
<g>
	<rect y="20.61" class="st0" width="30.28" height="7.76"/>
	<rect x="108.58" y="20.61" class="st0" width="34.28" height="7.76"/>
	<rect x="63.73" y="50.8" class="st0" width="35.21" height="7.46"/>
	<rect x="63.73" y="60.7" class="st0" width="35.21" height="7.46"/>
	<rect x="72.1" y="70.6" class="st0" width="26.84" height="7.46"/>
	<rect x="44.25" y="34.24" class="st0" width="6.77" height="7.76"/>
	<rect x="98.94" y="30.36" class="st0" width="6.77" height="7.76"/>
	<rect x="8.37" y="49.15" class="st0" width="21.91" height="7.76"/>
	<path class="st0" d="M0,49.08V25.47h8.37v31.44H7.84C3.51,56.91,0,53.4,0,49.08z"/>
	<rect x="35.88" y="19.06" class="st0" width="8.37" height="47.79"/>
	<rect x="148.17" y="19.06" class="st0" width="8.37" height="47.79"/>
	<rect x="90.57" y="19.06" class="st0" width="8.37" height="29.33"/>
	<rect x="90.57" y="53.22" class="st0" width="8.37" height="11.19"/>
	<path class="st0" d="M63.73,70.23v-7.05h8.37v14.88h-0.53C67.24,78.06,63.73,74.56,63.73,70.23z"/>
	<path class="st0" d="M68.9,48.67c-8.24,0-14.94-6.7-14.94-14.94s6.7-14.94,14.94-14.94s14.94,6.7,14.94,14.94
		S77.14,48.67,68.9,48.67z M68.9,26.93c-3.75,0-6.79,3.05-6.79,6.79s3.05,6.79,6.79,6.79c3.75,0,6.79-3.05,6.79-6.79
		S72.64,26.93,68.9,26.93z"/>
	<path class="st0" d="M141.6,59.04c-17-5.55-19.78-20.75-19.89-21.39l-0.06-0.34v-10.1h8.15v9.33c0.4,1.75,3.06,11.07,14.33,14.74
		L141.6,59.04z"/>
	<path class="st0" d="M109.85,59.04l-2.53-7.75c11.23-3.67,13.91-12.94,14.33-14.75v-9.33h8.15V37.3l-0.06,0.34
		C129.63,38.29,126.85,53.49,109.85,59.04z"/>
</g>
</svg>
