<?xml version="1.0" encoding="utf-8"?>
<!-- Generator: Adobe Illustrator 26.2.0, SVG Export Plug-In . SVG Version: 6.00 Build 0)  -->
<svg version="1.1" id="레이어_1" xmlns="http://www.w3.org/2000/svg" xmlns:xlink="http://www.w3.org/1999/xlink" x="0px"
	 y="0px" viewBox="0 0 518.74 128.86" style="enable-background:new 0 0 518.74 128.86;" xml:space="preserve">
<style type="text/css">
	.st0{fill:#E50012;}
	.st1{fill:url(#SVGID_1_);}
	.st2{fill:url(#SVGID_00000126292480134890326950000011335011370255714448_);}
	.st3{fill:url(#SVGID_00000005949530611093070420000003164715283743418289_);}
	.st4{fill:url(#SVGID_00000163072488228006370770000009684359676188304047_);}
</style>
<g>
	<path class="st0" d="M362.2,53.15v-9.34h3.33c2.81,0,4.53,1.75,4.53,4.66c0.01,2.92-1.72,4.68-4.57,4.68H362.2z M365.41,51.49
		c1.78,0,2.71-0.92,2.71-3.02c0-2.08-0.93-2.99-2.7-2.99h-1.29v6.01H365.41z"/>
	<path class="st0" d="M372.27,53.15l3.24-9.34h2.49l3.22,9.34h-2.08l-0.7-2.15h-3.38l-0.7,2.15H372.27z M377.95,49.49l-1.17-3.57
		h-0.06l-1.17,3.57H377.95z"/>
	<path class="st0" d="M386.07,53.15h-1.93v-9.34h1.93V53.15z"/>
	<path class="st0" d="M392.95,45.31c-0.98,0-1.53,0.45-1.53,1.07c-0.01,0.68,0.69,0.98,1.5,1.16l0.84,0.21
		c1.6,0.37,2.79,1.18,2.8,2.73c-0.01,1.71-1.33,2.8-3.61,2.8c-2.26,0.01-3.69-1.04-3.75-3.04h1.88c0.06,0.94,0.81,1.42,1.84,1.42
		c1.02,0,1.68-0.48,1.68-1.17c0-0.64-0.58-0.94-1.6-1.19l-1.02-0.24c-1.57-0.39-2.54-1.17-2.54-2.54c-0.01-1.7,1.49-2.82,3.53-2.82
		c2.07,0,3.43,1.15,3.46,2.8h-1.86C394.49,45.74,393.9,45.31,392.95,45.31z"/>
	<path class="st0" d="M403.86,53.28c-2.49,0-4.37-1.76-4.37-4.8c0-3.05,1.88-4.8,4.37-4.8c2.47,0,4.36,1.75,4.36,4.8
		C408.22,51.53,406.33,53.28,403.86,53.28z M403.86,51.56c1.44-0.01,2.39-1.09,2.39-3.08c0.01-2-0.95-3.08-2.39-3.08
		c-1.45,0.01-2.4,1.08-2.4,3.08C401.46,50.47,402.41,51.56,403.86,51.56z"/>
	<path class="st0" d="M424.16,53.15h-1.68l-4.1-5.93h-0.08v5.93h-1.93v-9.34h1.7l4.07,5.93h0.09v-5.93h1.92V53.15z"/>
	<path class="st0" d="M427.59,43.81h6.27v1.6h-4.33v2.27h4.01v1.6h-4.01v2.27h4.35v1.6h-6.28V43.81z"/>
	<path class="st0" d="M436.65,43.81h2.12l1.57,6.53h0.08l1.71-6.53h1.82l1.72,6.54h0.08l1.57-6.54h2.11l-2.67,9.34h-1.9l-1.78-6.16
		H443l-1.79,6.16h-1.9L436.65,43.81z"/>
	<path class="st0" d="M455.66,45.31c-0.98,0-1.53,0.45-1.53,1.07c-0.01,0.68,0.69,0.98,1.5,1.16l0.84,0.21
		c1.6,0.37,2.79,1.18,2.8,2.73c-0.01,1.71-1.33,2.8-3.61,2.8c-2.26,0.01-3.69-1.04-3.75-3.04h1.88c0.06,0.94,0.81,1.42,1.84,1.42
		c1.02,0,1.68-0.48,1.68-1.17c0-0.64-0.58-0.94-1.6-1.19l-1.02-0.24c-1.57-0.39-2.54-1.17-2.54-2.54c-0.01-1.7,1.49-2.82,3.53-2.82
		c2.07,0,3.43,1.15,3.46,2.8h-1.86C457.19,45.74,456.6,45.31,455.66,45.31z"/>
	<path class="st0" d="M462.38,43.81h1.93v7.74h4.02v1.6h-5.96V43.81z"/>
	<path class="st0" d="M471.44,43.81h6.27v1.6h-4.33v2.27h4.01v1.6h-4.01v2.27h4.35v1.6h-6.28V43.81z"/>
	<path class="st0" d="M480.72,43.81h7.65v1.6h-2.86v7.74h-1.92v-7.74h-2.86V43.81z"/>
	<path class="st0" d="M491.06,43.81h7.65v1.6h-2.86v7.74h-1.92v-7.74h-2.86V43.81z"/>
	<path class="st0" d="M501.77,43.81h6.27v1.6h-4.33v2.27h4.01v1.6h-4.01v2.27h4.35v1.6h-6.28V43.81z"/>
	<path class="st0" d="M511.4,43.81h3.66c2.12,0,3.34,1.19,3.34,3.04c0,1.28-0.59,2.2-1.65,2.66l1.99,3.63h-2.14l-1.79-3.31h-1.48
		v3.31h-1.93V43.81z M514.7,48.26c1.15,0,1.71-0.47,1.7-1.41c0.01-0.94-0.55-1.45-1.7-1.46h-1.37v2.86H514.7z"/>
</g>
<g>
	<rect x="362.2" y="64.42" class="st0" width="30.28" height="7.76"/>
	<rect x="470.78" y="64.42" class="st0" width="34.28" height="7.76"/>
	<rect x="425.93" y="94.61" class="st0" width="35.21" height="7.46"/>
	<rect x="425.93" y="104.51" class="st0" width="35.21" height="7.46"/>
	<rect x="434.3" y="114.41" class="st0" width="26.84" height="7.46"/>
	<rect x="406.45" y="78.05" class="st0" width="6.77" height="7.76"/>
	<rect x="461.14" y="74.17" class="st0" width="6.77" height="7.76"/>
	<rect x="370.57" y="92.96" class="st0" width="21.91" height="7.76"/>
	<path class="st0" d="M362.2,92.89V69.28h8.37v31.44h-0.53C365.71,100.72,362.2,97.21,362.2,92.89z"/>
	
		<rect x="378.37" y="82.58" transform="matrix(-1.075781e-09 1 -1 -1.075781e-09 489.0323 -315.5015)" class="st0" width="47.79" height="8.37"/>
	
		<rect x="490.66" y="82.58" transform="matrix(-1.076009e-09 1 -1 -1.076009e-09 601.3189 -427.7881)" class="st0" width="47.79" height="8.37"/>
	
		<rect x="442.29" y="73.35" transform="matrix(-1.752890e-09 1 -1 -1.752890e-09 534.4903 -379.4187)" class="st0" width="29.33" height="8.37"/>
	
		<rect x="451.36" y="98.44" transform="matrix(-4.593151e-09 1 -1 -4.593151e-09 559.5806 -354.3284)" class="st0" width="11.19" height="8.37"/>
	<path class="st0" d="M425.93,114.04v-7.05h8.37v14.88h-0.53C429.44,121.87,425.93,118.37,425.93,114.04z"/>
	<path class="st0" d="M431.1,92.48c-8.24,0-14.94-6.7-14.94-14.94s6.7-14.94,14.94-14.94s14.94,6.7,14.94,14.94
		S439.34,92.48,431.1,92.48z M431.1,70.74c-3.75,0-6.79,3.05-6.79,6.79s3.05,6.79,6.79,6.79c3.75,0,6.79-3.05,6.79-6.79
		S434.84,70.74,431.1,70.74z"/>
	<path class="st0" d="M503.8,102.85c-17-5.55-19.78-20.75-19.89-21.39l-0.06-0.34V71.02H492v9.33c0.4,1.75,3.06,11.07,14.33,14.74
		L503.8,102.85z"/>
	<path class="st0" d="M472.05,102.85l-2.53-7.75c11.23-3.67,13.91-12.94,14.33-14.75v-9.33H492v10.09l-0.06,0.34
		C491.83,82.1,489.05,97.3,472.05,102.85z"/>
</g>
<g>
	<g>
		<linearGradient id="SVGID_1_" gradientUnits="userSpaceOnUse" x1="51.2838" y1="17.9816" x2="118.0397" y2="46.2894">
			<stop  offset="0.1455" style="stop-color:#E50012"/>
			<stop  offset="0.7269" style="stop-color:#E50012;stop-opacity:0"/>
		</linearGradient>
		<path class="st1" d="M30.73,37.47c7.44-9.42,18.95-15.47,31.89-15.47c16.49,0,30.67,9.83,37.04,23.94
			c2.16-8.58,5.95-16.51,11.02-23.46C99.19,8.74,81.92,0,62.62,0C44.12,0,27.51,8.02,16.04,20.77
			C20.33,26.87,25.28,32.45,30.73,37.47z"/>
		
			<linearGradient id="SVGID_00000117637015170414165500000001615790530700747702_" gradientUnits="userSpaceOnUse" x1="166.5005" y1="96.6642" x2="138.1927" y2="77.229">
			<stop  offset="0" style="stop-color:#E50012"/>
			<stop  offset="1" style="stop-color:#E50012;stop-opacity:0"/>
		</linearGradient>
		<path style="fill:url(#SVGID_00000117637015170414165500000001615790530700747702_);" d="M165.86,103.24
			c-16.49,0-30.67-9.83-37.04-23.94c-2.16,8.58-5.95,16.51-11.02,23.46c11.49,13.74,28.75,22.48,48.06,22.48s36.57-8.74,48.06-22.48
			c-5.07-6.95-8.86-14.88-11.02-23.46C196.53,93.41,182.34,103.24,165.86,103.24z"/>
		
			<linearGradient id="SVGID_00000121974657622918627260000005527696156927516073_" gradientUnits="userSpaceOnUse" x1="150.6272" y1="19.1495" x2="213.5805" y2="59.71">
			<stop  offset="0.3201" style="stop-color:#E50012"/>
			<stop  offset="0.7084" style="stop-color:#E50012;stop-opacity:0"/>
		</linearGradient>
		<path style="fill:url(#SVGID_00000121974657622918627260000005527696156927516073_);" d="M165.86,21.99
			c16.49,0,30.67,9.83,37.04,23.94c2.16-8.58,5.95-16.51,11.02-23.46C202.43,8.74,185.16,0,165.86,0
			c-19.31,0-36.57,8.74-48.06,22.48c5.07,6.95,8.86,14.88,11.02,23.46C135.18,31.82,149.37,21.99,165.86,21.99z"/>
		
			<linearGradient id="SVGID_00000125566063582520200560000010556584955474868919_" gradientUnits="userSpaceOnUse" x1="258.6617" y1="108.8082" x2="226.9738" y2="89.7954">
			<stop  offset="0" style="stop-color:#E50012"/>
			<stop  offset="1" style="stop-color:#E50012;stop-opacity:0"/>
		</linearGradient>
		<path style="fill:url(#SVGID_00000125566063582520200560000010556584955474868919_);" d="M280.81,101.52
			c-3.71,1.12-7.64,1.72-11.71,1.72c-16.49,0-30.67-9.83-37.04-23.94c-2.16,8.58-5.95,16.51-11.02,23.46
			c11.49,13.74,28.75,22.48,48.06,22.48c11.03,0,21.39-2.86,30.39-7.86C292.26,113.35,285.92,107.95,280.81,101.52z"/>
		<g>
			<path class="st0" d="M114.24,27.17c-6.93,10.08-11,22.29-11,35.45c0,5.95-1.29,11.59-3.58,16.68
				c-6.37,14.11-20.55,23.94-37.04,23.94c-22.44,0-40.62-18.19-40.62-40.62c0-9.5,3.27-18.23,8.73-25.15
				c-5.45-5.02-10.39-10.6-14.69-16.69C6.07,31.86,0,46.53,0,62.62c0,34.58,28.03,62.62,62.62,62.62c19.31,0,36.57-8.74,48.06-22.48
				v0c1.26-1.51,2.45-3.07,3.56-4.69c6.93-10.08,11-22.29,11-35.45c0-5.95,1.29-11.59,3.58-16.68c-2.16-8.58-5.95-16.51-11.02-23.46
				C116.54,23.98,115.35,25.55,114.24,27.17z"/>
			<path class="st0" d="M320.07,107.97c-1.22-1.48-2.34-3.05-3.37-4.68c9.36-10.94,15.01-25.14,15.01-40.67
				c0-7.07-1.17-13.88-3.34-20.22c-5.04-14.77-15.44-27.06-28.89-34.54C290.49,2.86,280.12,0,269.1,0
				c-19.31,0-36.57,8.74-48.06,22.48c-1.26,1.51-2.45,3.07-3.56,4.69c-6.93,10.08-11,22.29-11,35.45c0,5.95-1.29,11.59-3.58,16.68
				c2.16,8.58,5.95,16.51,11.02,23.46c1.26-1.51,2.45-3.07,3.56-4.69c6.93-10.08,11-22.29,11-35.45c0-5.95,1.29-11.59,3.58-16.68
				c6.37-14.11,20.55-23.94,37.04-23.94c4.07,0,8,0.61,11.71,1.72c16.72,5.03,28.91,20.54,28.91,38.9
				c0,18.36-12.19,33.87-28.91,38.9c5.11,6.43,11.45,11.84,18.68,15.86c1.95,1.09,3.97,2.07,6.04,2.95
				c7.48,3.16,15.71,4.91,24.35,4.91c5.23,0,10.31-0.65,15.17-1.85C335.08,121.12,326.36,115.59,320.07,107.97z"/>
		</g>
	</g>
	<path class="st0" d="M63.36,86.85c-13.49,0-24.47-10.98-24.47-24.47h6.45c0,9.93,8.08,18.02,18.02,18.02s18.02-8.08,18.02-18.02
		h6.45C87.83,75.87,76.85,86.85,63.36,86.85z"/>
	<rect x="51.68" y="45.94" class="st0" width="6.45" height="14.42"/>
	<rect x="68.58" y="45.94" class="st0" width="6.45" height="14.42"/>
	<path class="st0" d="M165.86,86.85c-13.49,0-24.47-10.98-24.47-24.47h6.45c0,9.93,8.08,18.02,18.02,18.02s18.02-8.08,18.02-18.02
		h6.45C190.33,75.87,179.35,86.85,165.86,86.85z"/>
	<rect x="154.18" y="45.94" class="st0" width="6.45" height="14.42"/>
	<rect x="171.08" y="45.94" class="st0" width="6.45" height="14.42"/>
	<path class="st0" d="M268.35,86.85c-13.49,0-24.47-10.98-24.47-24.47h6.45c0,9.93,8.08,18.02,18.02,18.02s18.02-8.08,18.02-18.02
		h6.45C292.82,75.87,281.85,86.85,268.35,86.85z"/>
	<rect x="256.68" y="45.94" class="st0" width="6.45" height="14.42"/>
	<rect x="273.58" y="45.94" class="st0" width="6.45" height="14.42"/>
</g>
</svg>
