<?xml version="1.0" encoding="utf-8"?>
<!-- Generator: Adobe Illustrator 24.2.3, SVG Export Plug-In . SVG Version: 6.00 Build 0)  -->
<svg version="1.1" id="레이어_1" xmlns="http://www.w3.org/2000/svg" xmlns:xlink="http://www.w3.org/1999/xlink" x="0px"
	 y="0px" viewBox="0 0 332.3 168.3" style="enable-background:new 0 0 332.3 168.3;" xml:space="preserve">
<style type="text/css">
	.st0{fill:url(#SVGID_1_);}
	.st1{fill:url(#SVGID_2_);}
	.st2{fill:url(#SVGID_3_);}
	.st3{fill:url(#SVGID_4_);}
	.st4{fill:#E50012;}
	.st5{enable-background:new    ;}
</style>
<g>
	<g>
		
			<linearGradient id="SVGID_1_" gradientUnits="userSpaceOnUse" x1="25.7995" y1="160.9523" x2="59.3832" y2="146.711" gradientTransform="matrix(1 0 0 -1 0 170)">
			<stop  offset="0.1455" style="stop-color:#E50012"/>
			<stop  offset="0.7269" style="stop-color:#E50012;stop-opacity:0"/>
		</linearGradient>
		<path class="st0" d="M15.5,18.9c3.7-4.7,9.5-7.8,16-7.8c8.3,0,15.4,4.9,18.6,12c1.1-4.3,3-8.3,5.5-11.8C49.9,4.4,41.2,0,31.5,0
			C22.2,0,13.8,4,8.1,10.4C10.2,13.5,12.7,16.3,15.5,18.9z"/>
		
			<linearGradient id="SVGID_2_" gradientUnits="userSpaceOnUse" x1="83.7661" y1="121.3733" x2="69.5248" y2="131.1509" gradientTransform="matrix(1 0 0 -1 0 170)">
			<stop  offset="0" style="stop-color:#E50012"/>
			<stop  offset="1" style="stop-color:#E50012;stop-opacity:0"/>
		</linearGradient>
		<path class="st1" d="M83.4,51.9c-8.3,0-15.4-4.9-18.6-12c-1.1,4.3-3,8.3-5.5,11.8C65,58.6,73.7,63,83.4,63s18.4-4.4,24.2-11.3
			c-2.6-3.5-4.5-7.5-5.5-11.8C98.9,47,91.7,51.9,83.4,51.9z"/>
		
			<linearGradient id="SVGID_3_" gradientUnits="userSpaceOnUse" x1="75.7765" y1="160.3639" x2="107.4473" y2="139.9586" gradientTransform="matrix(1 0 0 -1 0 170)">
			<stop  offset="0.3201" style="stop-color:#E50012"/>
			<stop  offset="0.7084" style="stop-color:#E50012;stop-opacity:0"/>
		</linearGradient>
		<path class="st2" d="M83.4,11.1c8.3,0,15.4,4.9,18.6,12c1.1-4.3,3-8.3,5.5-11.8C101.8,4.4,93.2,0,83.4,0S65,4.4,59.3,11.3
			c2.5,3.5,4.5,7.5,5.5,11.8C68,16,75.1,11.1,83.4,11.1z"/>
		
			<linearGradient id="SVGID_4_" gradientUnits="userSpaceOnUse" x1="130.1289" y1="115.2612" x2="114.1872" y2="124.8262" gradientTransform="matrix(1 0 0 -1 0 170)">
			<stop  offset="0" style="stop-color:#E50012"/>
			<stop  offset="1" style="stop-color:#E50012;stop-opacity:0"/>
		</linearGradient>
		<path class="st3" d="M141.3,51.1c-1.9,0.6-3.8,0.9-5.9,0.9c-8.3,0-15.4-4.9-18.6-12c-1.1,4.3-3,8.3-5.5,11.8
			C117,58.6,125.7,63,135.4,63c5.6,0,10.8-1.4,15.3-4C147,57,143.8,54.3,141.3,51.1z"/>
	</g>
	<g>
		<path class="st4" d="M3.6,96.2v-9.6H7c2.9,0,4.6,1.8,4.6,4.8c0,3-1.8,4.8-4.7,4.8H3.6z M6.9,94.5c1.8,0,2.8-0.9,2.8-3.1
			c0-2.1-0.9-3.1-2.8-3.1H5.6v6.2H6.9z"/>
		<path class="st4" d="M13.9,96.2l3.3-9.6h2.5l3.3,9.6h-2.1L20.2,94h-3.5L16,96.2H13.9z M19.7,92.5l-1.2-3.7h-0.1l-1.2,3.7H19.7z"/>
		<path class="st4" d="M28,96.2h-2v-9.6h2V96.2z"/>
		<path class="st4" d="M35.1,88.2c-1,0-1.6,0.5-1.6,1.1c0,0.7,0.7,1,1.5,1.2l0.9,0.2c1.6,0.4,2.9,1.2,2.9,2.8c0,1.8-1.4,2.9-3.7,2.9
			c-2.3,0-3.8-1.1-3.9-3.1h1.9c0.1,1,0.8,1.5,1.9,1.5c1,0,1.7-0.5,1.7-1.2c0-0.7-0.6-1-1.6-1.2l-1-0.3c-1.6-0.4-2.6-1.2-2.6-2.6
			c0-1.7,1.5-2.9,3.6-2.9c2.1,0,3.5,1.2,3.5,2.9h-1.9C36.7,88.6,36.1,88.2,35.1,88.2z"/>
		<path class="st4" d="M46.3,96.4c-2.5,0-4.5-1.8-4.5-4.9c0-3.1,1.9-4.9,4.5-4.9c2.5,0,4.5,1.8,4.5,4.9
			C50.8,94.6,48.8,96.4,46.3,96.4z M46.3,94.6c1.5,0,2.5-1.1,2.5-3.2c0-2.1-1-3.2-2.5-3.2c-1.5,0-2.5,1.1-2.5,3.2
			C43.8,93.5,44.8,94.6,46.3,94.6z"/>
		<path class="st4" d="M67.1,96.2h-1.7l-4.2-6.1h-0.1v6.1h-2v-9.6h1.8l4.2,6.1h0.1v-6.1h2V96.2z"/>
		<path class="st4" d="M70.6,86.6H77v1.6h-4.4v2.3h4.1v1.6h-4.1v2.3H77v1.6h-6.4V86.6z"/>
		<path class="st4" d="M79.9,86.6H82l1.6,6.7h0.1l1.8-6.7h1.9l1.8,6.7h0.1l1.6-6.7H93l-2.7,9.6h-1.9l-1.8-6.3h-0.1l-1.8,6.3h-1.9
			L79.9,86.6z"/>
		<path class="st4" d="M99.4,88.2c-1,0-1.6,0.5-1.6,1.1c0,0.7,0.7,1,1.5,1.2l0.9,0.2c1.6,0.4,2.9,1.2,2.9,2.8c0,1.8-1.4,2.9-3.7,2.9
			c-2.3,0-3.8-1.1-3.8-3.1h1.9c0.1,1,0.8,1.5,1.9,1.5c1.1,0,1.7-0.5,1.7-1.2c0-0.7-0.6-1-1.6-1.2L98.4,92c-1.6-0.4-2.6-1.2-2.6-2.6
			c0-1.7,1.5-2.9,3.6-2.9c2.1,0,3.5,1.2,3.6,2.9H101C100.9,88.6,100.3,88.2,99.4,88.2z"/>
		<path class="st4" d="M106.2,86.6h2v7.9h4.1v1.6h-6.1L106.2,86.6L106.2,86.6z"/>
		<path class="st4" d="M115.5,86.6h6.4v1.6h-4.4v2.3h4.1v1.6h-4.1v2.3h4.5v1.6h-6.4V86.6z"/>
		<path class="st4" d="M125,86.6h7.8v1.6h-2.9v7.9h-2v-7.9H125C125,88.3,125,86.6,125,86.6z"/>
		<path class="st4" d="M135.6,86.6h7.9v1.6h-2.9v7.9h-2v-7.9h-2.9V86.6z"/>
		<path class="st4" d="M146.6,86.6h6.4v1.6h-4.4v2.3h4.1v1.6h-4.1v2.3h4.5v1.6h-6.4V86.6z"/>
		<path class="st4" d="M156.5,86.6h3.8c2.2,0,3.4,1.2,3.4,3.1c0,1.3-0.6,2.3-1.7,2.7l2,3.7h-2.2l-1.8-3.4h-1.5v3.4h-2L156.5,86.6
			L156.5,86.6z M159.9,91.2c1.2,0,1.8-0.5,1.8-1.4c0-1-0.6-1.5-1.8-1.5h-1.4v2.9H159.9z"/>
	</g>
	<g>
		<path class="st4" d="M3.6,114.4v3v20.7c0,4.7,3.8,8.6,8.6,8.6h22.5v-8H12.2v-21.3h22.5v-8h-31V114.4z"/>
		<path class="st4" d="M68.9,148h27.5v2.5H68.9v2.5v5.1v1.6c0,4.7,3.8,8.6,8.6,8.6H105v-7.6H77.5v-2.5H105v-3.9v-3.8V148v-5.2v-2.5
			H68.9V148z"/>
		<polygon class="st4" points="48.9,107.8 40.4,107.8 40.4,156.8 48.9,156.8 48.9,131.4 55.9,131.4 55.9,123.4 48.9,123.4 		"/>
		<rect x="155.4" y="107.8" class="st4" width="8.6" height="49"/>
		<polygon class="st4" points="105,107.8 96.4,107.8 96.4,137.9 105,137.9 105,127.4 111.9,127.4 111.9,119.4 105,119.4 		"/>
		<path class="st4" d="M89.5,122.9c0-8.4-6.9-15.3-15.3-15.3c-8.4,0-15.3,6.9-15.3,15.3s6.9,15.3,15.3,15.3
			C82.6,138.2,89.5,131.3,89.5,122.9z M67.2,122.9c0-3.8,3.1-7,7-7s7,3.1,7,7s-3.1,7-7,7C70.4,129.8,67.2,126.7,67.2,122.9z"/>
		<path class="st4" d="M136.6,125.8v-8.4H150v-8h-35.1v8h13.4v8.4c-0.4,1.9-3.2,11.4-14.7,15.1l2.6,7.9c8.3-2.7,13.3-7.7,16.3-12.2
			c3,4.5,7.9,9.5,16.3,12.2l2.6-7.9C139.7,137.1,137,127.6,136.6,125.8z"/>
	</g>
	<g>
		<path class="st4" d="M51.9,31.5c0,3-0.6,5.8-1.8,8.4c0,0,0,0,0,0c-3.2,7.1-10.3,12-18.6,12c-11.3,0-20.4-9.2-20.4-20.4
			c0-4.8,1.7-9.2,4.4-12.7c-2.7-2.5-5.2-5.3-7.4-8.4C3,16,0,23.4,0,31.5C0,48.9,14.1,63,31.5,63c9.7,0,18.4-4.4,24.2-11.3
			c0,0,0,0,0,0c0.6-0.8,1.2-1.5,1.8-2.4C54,44.3,51.9,38.1,51.9,31.5z"/>
		<path class="st4" d="M57.5,13.7c3,4.4,5,9.7,5.4,15.4C62.5,23.4,60.5,18.1,57.5,13.7c-3.5,5.1-5.5,11.2-5.5,17.8s2,12.8,5.5,17.8
			C61,44.3,63,38.1,63,31.5c0-3,0.7-5.8,1.8-8.4c-1.1-4.3-3-8.3-5.5-11.8C58.6,12.1,58,12.9,57.5,13.7z"/>
		<path class="st4" d="M102.1,39.9c1.1,4.3,3,8.3,5.5,11.8c0.6-0.8,1.2-1.6,1.8-2.4c-3.5-5.1-5.5-11.2-5.5-17.8
			C103.9,34.5,103.2,37.3,102.1,39.9z"/>
		<path class="st4" d="M161,54.3c-1.2,1.4-2.5,2.6-4,3.8C158.5,56.9,159.8,55.7,161,54.3c-0.6-0.7-1.2-1.5-1.7-2.3c0,0,0,0,0,0
			c0,0,0,0,0,0c4.7-5.5,7.5-12.6,7.5-20.5c0-3.6-0.6-7-1.7-10.2c-2.5-7.4-7.8-13.6-14.5-17.4c0,0,0,0,0,0c-4.5-2.5-9.7-4-15.3-4
			c-9.7,0-18.4,4.4-24.2,11.3c-0.6,0.8-1.2,1.5-1.8,2.4l0,0c-3.5,5.1-5.5,11.2-5.5,17.8s2,12.8,5.5,17.8c3.5-5.1,5.5-11.2,5.5-17.8
			c0-3,0.7-5.8,1.8-8.4c-0.7-2.8-1.7-5.4-3.1-7.9c1.3,2.5,2.4,5.1,3.1,7.9c3.2-7.1,10.3-12,18.6-12c2,0,4,0.3,5.9,0.9c0,0,0,0,0,0
			c8.4,2.5,14.5,10.3,14.5,19.6c0,9.2-6.1,17-14.5,19.6c2.6,3.2,5.8,6,9.4,8c0.5-0.3,0.9-0.6,1.4-0.8c-0.5,0.3-0.9,0.6-1.4,0.8
			c1,0.5,2,1,3,1.5c3.8,1.6,7.9,2.5,12.3,2.5c2.6,0,5.2-0.3,7.6-0.9C168.6,60.9,164.2,58.1,161,54.3z"/>
		<path class="st4" d="M31.9,43.7c6.8,0,12.3-5.5,12.3-12.3h-3.3c0,5-4.1,9.1-9.1,9.1s-9.1-4.1-9.1-9.1h-3.3
			C19.6,38.2,25.1,43.7,31.9,43.7z"/>
		<rect x="26" y="23.1" class="st4" width="3.3" height="7.3"/>
		<rect x="34.5" y="23.1" class="st4" width="3.3" height="7.3"/>
		<path class="st4" d="M83.4,40.4c-5,0-9.1-4.1-9.1-9.1h-3.3c0,6.8,5.5,12.3,12.3,12.3s12.3-5.5,12.3-12.3h-3.3
			C92.5,36.4,88.4,40.4,83.4,40.4z"/>
		<rect x="77.6" y="23.1" class="st4" width="3.3" height="7.3"/>
		<rect x="86.1" y="23.1" class="st4" width="3.3" height="7.3"/>
		<path class="st4" d="M147.3,31.4h-3.3c0,5-4.1,9.1-9.1,9.1s-9.1-4.1-9.1-9.1h-3.3c0,6.8,5.5,12.3,12.3,12.3S147.3,38.2,147.3,31.4
			z"/>
		<rect x="129.1" y="23.1" class="st4" width="3.3" height="7.3"/>
		<rect x="137.6" y="23.1" class="st4" width="3.3" height="7.3"/>
	</g>
</g>
<g class="st5">
	<path class="st4" d="M189.1,109.8h9.8v1.3h-8.3v11.1h0.1c4,0,6.7-0.1,10-0.7l0.2,1.3c-3.3,0.6-6.1,0.7-10.2,0.7h-1.6V109.8z
		 M204.4,116.3h3.6v1.3h-3.6v11.3h-1.5v-21.1h1.5V116.3z"/>
	<path class="st4" d="M215.5,109.4c3.1,0,5.3,2.9,5.3,7.3c0,4.4-2.2,7.3-5.3,7.3c-3.1,0-5.3-2.8-5.3-7.3
		C210.1,112.3,212.4,109.4,215.5,109.4z M215.5,122.7c2.3,0,3.9-2.4,3.9-6c0-3.5-1.6-5.9-3.9-6c-2.3,0-3.9,2.4-3.9,6
		C211.6,120.3,213.2,122.7,215.5,122.7z M226.6,128.9h-1.5v-21.1h1.5V128.9z"/>
	<path class="st4" d="M249.8,126h-19.3v-1.3h8.8v-5.3h1.5v5.3h9V126z M239.2,110.9v-1.7h1.6v1.7c0,3.7,4.6,6.8,8,7.4l-0.7,1.3
		c-3-0.7-6.7-2.9-8-6.1c-1.4,3.2-5,5.4-8,6.1l-0.7-1.3C234.7,117.7,239.2,114.6,239.2,110.9z"/>
	<path class="st4" d="M270.9,118.9h-19.3v-1.2h19.3V118.9z M254,120.8h14.5v4.3h-13v2.3h13.7v1.1H254V124H267v-2h-13V120.8z
		 M254.1,108.5h14.3v4.2h-12.8v2.1h13.1v1.1h-14.6v-4.3h12.8v-2h-12.8V108.5z"/>
</g>
<g class="st5">
	<path class="st4" d="M194,136.6c3.2,0,5.4,1.9,5.4,4.6c0,2.8-2.3,4.7-5.4,4.7c-3.1,0-5.4-1.9-5.4-4.7
		C188.6,138.5,190.9,136.6,194,136.6z M194,144.6c2.3,0,3.9-1.4,3.9-3.4c0-1.9-1.7-3.4-3.9-3.4c-2.3,0-4,1.4-3.9,3.4
		C190.1,143.2,191.8,144.6,194,144.6z M191.3,147.6h13.3v4.9h-11.8v2.8h12.6v1.2h-14.1v-5.2h11.7v-2.5h-11.8V147.6z M204.6,140.5
		h3.3v1.3h-3.3v4.8h-1.5v-10.8h1.5V140.5z"/>
	<path class="st4" d="M210.5,137.8h9.7v7.3h-8.2v5.3h0.2c3.5,0,6.7-0.2,10.6-0.8l0.1,1.3c-4,0.6-7.2,0.8-10.8,0.8h-1.7v-7.9h8.2
		v-4.8h-8.2V137.8z M226.6,156.9h-1.5v-21.1h1.5V156.9z"/>
	<path class="st4" d="M230.4,146.7h19.3v1.2h-19.3V146.7z M233,150.2h1.5v4.8h13.1v1.3H233V150.2z M247.5,143.6h-14.4v-7.1h1.5v5.8
		h12.9V143.6z"/>
	<path class="st4" d="M276.9,154h-19.3v-1.3h8.8v-5.3h1.5v5.3h9V154z M266.3,138.9v-1.7h1.6v1.7c0,3.7,4.6,6.8,8,7.4l-0.7,1.3
		c-3-0.7-6.7-2.9-8-6.1c-1.4,3.2-5,5.4-8,6.1l-0.7-1.3C261.7,145.7,266.3,142.6,266.3,138.9z"/>
	<path class="st4" d="M291.5,145.9l-0.8,1.2c-2.4-0.9-4.5-2.9-5.4-5.4c-0.9,2.7-3,4.7-5.4,5.7l-0.8-1.2c3.1-1.2,5.5-4.2,5.5-7.5v-2
		h1.5v2C286,142,288.4,144.8,291.5,145.9z M282,149.6H296v7.2h-1.5v-6H282V149.6z M294.5,135.8h1.5v12.8h-1.5V135.8z"/>
	<path class="st4" d="M313.1,151l-0.9,1.2c-2.4-1.1-4.7-3.6-5.7-6.7c-1,3.2-3.3,6-5.7,7.2l-0.9-1.2c2.9-1.4,5.8-5.4,5.8-9.1v-3.2
		h-5.1V138h11.9v1.3h-5.2v3.2C307.2,146.1,310.1,149.7,313.1,151z M315.7,135.8h1.5v21.1h-1.5V135.8z"/>
	<path class="st4" d="M322.4,159.7H321l1.3-6.2h1.8L322.4,159.7z"/>
</g>
</svg>
