<?xml version="1.0" encoding="utf-8"?>
<!-- Generator: Adobe Illustrator 26.2.0, SVG Export Plug-In . SVG Version: 6.00 Build 0)  -->
<svg version="1.1" id="레이어_1" xmlns="http://www.w3.org/2000/svg" xmlns:xlink="http://www.w3.org/1999/xlink" x="0px"
	 y="0px" viewBox="0 0 277.88 281.99" style="enable-background:new 0 0 277.88 281.99;" xml:space="preserve">
<style type="text/css">
	.st0{fill:#E50213;}
	.st1{fill:#FFFFFF;}
	.st2{fill:url(#SVGID_1_);}
</style>
<g>
	<path class="st0" d="M171.75,278.49C95.98,295.64,20.65,248.13,3.5,172.36S33.87,21.27,109.63,4.12s151.09,30.36,168.24,106.13"/>
	<g>
		<path class="st1" d="M40.75,122.05l-13.7-3.47l1.24-4.88c1.04-4.13,4.25-6,8.51-4.91c4.29,1.08,6.23,4.26,5.17,8.44L40.75,122.05z
			 M39.5,116.72c0.66-2.61-0.35-4.32-3.42-5.09c-3.05-0.77-4.73,0.25-5.39,2.84l-0.48,1.89l8.82,2.23L39.5,116.72z"/>
		<path class="st1" d="M45.49,105.18l-10.8-10.33l1.57-3.42l14.87,1.45l-1.31,2.86l-3.4-0.39l-2.13,4.65l2.52,2.32L45.49,105.18z
			 M44.03,95.06l-5.65-0.64l-0.04,0.09l4.18,3.85L44.03,95.06z"/>
		<path class="st1" d="M56.37,84.63l-1.59,2.45l-11.82-7.7l1.6-2.45L56.37,84.63z"/>
		<path class="st1" d="M55.28,66.64c-0.97,1.12-1,2.19-0.31,2.81c0.77,0.68,1.8,0.19,2.81-0.55l1.07-0.75
			c2.01-1.46,4.12-2.01,5.9-0.47c1.94,1.71,1.87,4.31-0.4,6.9c-2.24,2.58-4.86,3.18-7.2,1.25l1.87-2.15
			c1.14,0.86,2.42,0.48,3.45-0.69c1.01-1.16,1.12-2.38,0.33-3.08c-0.73-0.63-1.64-0.27-2.94,0.64l-1.29,0.92
			c-2,1.41-3.86,1.73-5.42,0.37c-1.94-1.68-1.74-4.5,0.29-6.83c2.06-2.36,4.72-2.77,6.62-1.16l-1.85,2.12
			C57.3,65.32,56.22,65.56,55.28,66.64z"/>
		<path class="st1" d="M77.92,61.66c-2.96,2.33-6.84,2-9.69-1.61c-2.85-3.62-2.25-7.46,0.7-9.79c2.93-2.31,6.81-2.01,9.67,1.62
			C81.46,55.5,80.86,59.34,77.92,61.66z M76.32,59.62c1.7-1.35,1.82-3.53-0.05-5.9c-1.86-2.38-4.01-2.77-5.72-1.43
			c-1.72,1.37-1.83,3.53,0.04,5.91C72.45,60.57,74.59,60.97,76.32,59.62z"/>
		<path class="st1" d="M96.31,34.36l7.02,7.59l0.15-0.05l0.32-10.34l3.4-1.27l4.94,13.22l-2.67,1l-3.24-8.66l-0.11,0.04l-0.24,9.89
			l-1.83,0.68l-6.68-7.35l-0.11,0.04l3.25,8.69l-2.67,1l-4.94-13.22L96.31,34.36z"/>
		<path class="st1" d="M118.57,41.93l2.68-14.71l3.72-0.58l6.99,13.22l-3.11,0.48l-1.55-3.06l-5.05,0.78l-0.55,3.38L118.57,41.93z
			 M126.22,35.13l-2.57-5.07l-0.1,0.02l-0.92,5.61L126.22,35.13z"/>
		<path class="st1" d="M144.77,28.05c-2.18-0.06-3.72,1.55-3.82,4.51c-0.1,2.98,1.27,4.72,3.52,4.8c2.02,0.06,3.25-1.04,3.35-2.81
			l-3.06-0.1l0.07-2.2l5.88,0.2l-0.06,1.75c-0.13,3.7-2.75,5.88-6.3,5.76c-3.96-0.13-6.55-2.99-6.4-7.45
			c0.15-4.58,3.11-7.17,6.83-7.05c3.19,0.11,5.57,2.15,5.86,4.94l-2.96-0.1C147.34,28.96,146.3,28.11,144.77,28.05z"/>
		<path class="st1" d="M156.44,40.69l7.89-12.7l3.67,0.83l1.65,14.85l-3.06-0.69l-0.32-3.41l-4.99-1.13l-1.75,2.94L156.44,40.69z
			 M166.04,37.18l-0.53-5.66l-0.09-0.02l-2.91,4.88L166.04,37.18z"/>
		<path class="st1" d="M176.52,44.21l10.44-6.34l-6.52-2.81l0.96-2.22l9.89,4.25l-0.69,1.61l-10.42,6.35l6.51,2.8l-0.96,2.22
			l-9.89-4.25L176.52,44.21z"/>
		<path class="st1" d="M194.75,55.29l-2.5-1.52l7.35-12.06l2.5,1.52L194.75,55.29z"/>
		<path class="st1" d="M210.18,66.97l-1.95-1.62l0.97-10.86l-0.09-0.08l-5.74,6.9l-2.25-1.87l9.03-10.86l1.98,1.65l-1,10.84
			l0.11,0.09l5.74-6.9l2.23,1.86L210.18,66.97z"/>
		<path class="st1" d="M226.26,63.23l6.11,7.25l-1.85,1.56l-4.23-5.01l-2.63,2.21l3.91,4.64l-1.85,1.56l-3.91-4.64l-2.63,2.21
			l4.24,5.03l-1.85,1.56l-6.13-7.27L226.26,63.23z"/>
	</g>
	<g>
		<path class="st1" d="M110.14,93.81c0.52,2.28-0.14,4.49-3.08,9.34l-2.41,3.96l8.52-1.93l0.94,4.14l-15.66,3.54l-0.63-2.79
			l5.5-9.01c2.02-3.31,2.31-4.87,2.03-6.11c-0.36-1.61-1.49-2.49-3.62-2.01c-1.99,0.45-2.7,2.31-2.32,3.97l-4.81,1.09
			c-0.97-4.3,1.55-8.26,6.17-9.3C105.68,87.59,109.24,89.84,110.14,93.81z"/>
		<path class="st1" d="M131.29,93.91c1.73,7.66-1,12.31-5.78,13.39c-4.78,1.08-9.25-1.94-10.98-9.6
			c-1.74-7.68,0.99-12.34,5.77-13.42C125.08,83.2,129.55,86.23,131.29,93.91z M119.15,96.66c1.12,4.97,3.25,6.86,5.4,6.38
			c2.15-0.49,3.25-3.11,2.12-8.08c-1.13-5-3.25-6.89-5.4-6.4S118.02,91.66,119.15,96.66z"/>
		<path class="st1" d="M148.59,85.11c0.52,2.28-0.14,4.49-3.08,9.34l-2.41,3.96l8.52-1.93l0.94,4.14l-15.66,3.55l-0.63-2.79
			l5.5-9.01c2.02-3.31,2.31-4.87,2.03-6.11c-0.37-1.61-1.5-2.49-3.62-2.01c-1.99,0.45-2.7,2.31-2.32,3.97l-4.81,1.09
			c-0.97-4.3,1.55-8.26,6.17-9.3C144.13,78.89,147.69,81.14,148.59,85.11z"/>
		<path class="st1" d="M163.92,98.05l-4.86,1.1l-4-17.65l-3.87,0.88l-0.96-4.24l8.73-1.98L163.92,98.05z"/>
	</g>
	<g>
		<path class="st1" d="M98.28,178.66l-22.12,5.01l-1.49,11.96l-13.16,2.98l9.2-62.05l13.23-2.99l35.03,52.04l-14.21,3.22
			L98.28,178.66z M91.86,168.49l-11.64-18.26l-2.64,21.49L91.86,168.49z"/>
		<path class="st1" d="M111.81,127.25l21.91-4.96c14.84-3.36,25.39,2.93,28.24,15.53c2.88,12.74-3.92,22.96-18.76,26.32l-9.17,2.08
			l3.44,15.19l-12.74,2.88L111.81,127.25z M140.08,153.01c7.07-1.6,10.58-5.93,9.14-12.3c-1.43-6.3-6.44-8.62-13.51-7.02l-8.61,1.95
			l4.37,19.32L140.08,153.01z"/>
		<path class="st1" d="M210.95,164.78l-15.13-15.48l-10.15,2.3l4.07,17.99l-12.74,2.88l-12.91-57.04l22.96-5.2
			c14.49-3.28,24.7,2.5,27.38,14.33c1.77,7.84-0.57,14.7-6.58,19.37l17.87,17.51L210.95,164.78z M183.12,140.32l9.66-2.19
			c6.72-1.52,10.13-5.31,8.91-10.7c-1.22-5.39-5.93-7.34-12.65-5.82l-9.66,2.19L183.12,140.32z"/>
	</g>
	
		<linearGradient id="SVGID_1_" gradientUnits="userSpaceOnUse" x1="311.6746" y1="50.2273" x2="339.8125" y2="81.4916" gradientTransform="matrix(0.9753 -0.2208 0.2208 0.9753 -125.4222 189.3206)">
		<stop  offset="0.0981" style="stop-color:#FF5A61"/>
		<stop  offset="0.5319" style="stop-color:#E50213"/>
		<stop  offset="0.9968" style="stop-color:#9C141D"/>
	</linearGradient>
	<path class="st2" d="M171.79,278.48c-17.15-75.77,30.34-151.09,106.09-168.23"/>
</g>
</svg>
